<svg width="24" height="33" viewBox="0 0 24 33" fill="none" xmlns="http://www.w3.org/2000/svg">
<path d="M0 0.5H20C22.2091 0.5 24 2.29086 24 4.5V28.5C24 30.7091 22.2091 32.5 20 32.5H0V0.5Z" fill="#DAE6F2"/>
<path fill-rule="evenodd" clip-rule="evenodd" d="M12.5629 19.2542L12.0047 18.6756L11.4464 19.2542C11.7547 19.5737 12.2546 19.5737 12.5629 19.2542ZM12.0047 17.5186L8.35238 13.7335C8.04407 13.4139 7.5442 13.4139 7.23589 13.7335C6.92758 14.053 6.92758 14.571 7.23589 14.8905L11.4464 19.2542L12.0047 18.6756L12.5629 19.2542L16.7734 14.8905C17.0817 14.571 17.0817 14.053 16.7734 13.7335C16.4651 13.4139 15.9653 13.4139 15.6569 13.7335L12.0047 17.5186Z" fill="#1C3144"/>
</svg>
